<?xml version="1.0" encoding="UTF-8" standalone="no"?><!DOCTYPE svg PUBLIC "-//W3C//DTD SVG 1.1//EN" "http://www.w3.org/Graphics/SVG/1.1/DTD/svg11.dtd"><svg width="100%" height="100%" viewBox="100 0 1700 720" version="1.1" xmlns="http://www.w3.org/2000/svg" xmlns:xlink="http://www.w3.org/1999/xlink" xml:space="preserve" xmlns:serif="http://www.serif.com/" style="fill-rule:evenodd;clip-rule:evenodd;stroke-linejoin:round;stroke-miterlimit:2;"><g><path d="M96,717c0,0 -56.735,-449.261 0,-499.106c56.735,-49.845 257.249,186.222 340.413,200.036c69.297,11.51 -5.286,-84.917 158.57,-117.154c99.655,-19.606 719.932,273.311 887.962,150.035c192.12,-140.95 443.14,-461.364 533.055,-450.082c68.631,8.612 8.126,716.271 8.126,716.271l-1928.13,0Z" style="fill:#2b222f;"/><path d="M6.306,357.977c35.759,-51.995 207.081,55.794 312.374,47.059c105.797,-8.777 213.224,-128.83 322.407,-99.72c115.686,30.844 207.851,317.022 371.707,284.784c99.654,-19.606 162.425,-91.723 330.455,-214.999c192.12,-140.95 273.382,31.547 363.296,42.829c68.631,8.612 317.581,299.07 317.581,299.07l-1920,0c0,0 -133.579,-307.029 -97.82,-359.023Z" style="fill:#45364b;"/><path d="M99.643,425.497c52.063,-40.741 207.121,56.125 312.375,47.059c109.579,-9.438 223.11,-110.853 345.099,-103.687c149.503,8.782 362.815,193.661 551.919,156.381c209.814,-41.362 588.529,-436.512 706.964,-404.554c118.435,31.959 3.643,596.304 3.643,596.304l-1920,0c0,0 -52.062,-250.762 0,-291.503Z" style="fill:#060406;"/></g></svg>